<svg version="1.2" xmlns="http://www.w3.org/2000/svg" viewBox="0 0 64 64" width="64" height="64">
	<style>
		.s0 { fill: #fcfcfc } 
		.s1 { fill: #7faf42 } 
		.s2 { fill: #265c84 } 
		.s3 { fill: #a3c0a3 } 
	</style>
	<g id="Background">
		<path id="Path 0" class="s0" d="m0 32v32h64v-64h-64z"/>
		<path id="Path 1" class="s1" d="m30.28 13.78c-0.66 0.42-1.73 4.8-2.36 9.74-0.63 4.94-1.32 9.09-1.53 9.23-0.22 0.14-2.42-3.8-4.89-8.75-4.28-8.55-4.66-9-7.75-9.01l-3.25-0.02c-3.5 21.34-4.51 28.32-4.51 29.28 0.01 1.36 0.74 1.69 3.24 1.5l3.22-0.25c1.93-13.95 2.73-18.11 3.02-18.25 0.29-0.14 2.55 3.8 5.03 8.75 4.38 8.76 4.59 9 8 9 3.15 0 3.5-0.27 3.51-2.75 0-1.51 0.68-7.25 1.5-12.75 0.83-5.5 1.73-11.46 2-13.25 0.43-2.85 0.21-3.25-1.76-3.23-1.24 0-2.8 0.35-3.47 0.76z"/>
		<path id="Path 2" class="s2" d="m47.12 24.99c-2.74 1.6-3.36 1.7-3.25 0.5q0.12-1.49-2.62-1.5l-2.75-0.01c-2.73 21.33-3.52 28.31-3.51 29.27 0.01 1.3 0.72 1.69 2.76 1.5 2.45-0.22 2.82-0.76 3.5-5l0.75-4.75c6.59-0.05 9.4-0.75 10.5-1.59 1.1-0.85 2.78-2.75 3.74-4.22 1.1-1.69 1.75-4.65 1.75-7.94 0.01-4.34-0.38-5.51-2.24-6.76-1.24-0.83-2.92-1.5-3.75-1.49-0.83 0-3.02 0.9-4.88 1.99z"/>
		<path id="Path 3" class="s3" d="m29.25 13.72c0.41 0.43 1.05 0.44 1.42 0.03 0.36-0.41 0.03-0.76-0.75-0.78-0.78-0.01-1.08 0.32-0.67 0.75zm-19.84 1.53c-0.3 0.69-0.34 2.15-0.1 3.25 0.34 1.48 0.49 1.28 0.57-0.75 0.1-2.34 0.61-2.8 3.37-3.09l3.25-0.34c-5.08-0.25-6.79 0.24-7.09 0.93zm26.59-0.75c0 0.27 0.23 0.5 0.5 0.5 0.27 0 0.5-0.23 0.5-0.5 0-0.28-0.23-0.5-0.5-0.5-0.27 0-0.5 0.22-0.5 0.5zm-19 1c0 0.27 0.23 0.5 0.5 0.5 0.27 0 0.5-0.23 0.5-0.5 0-0.27-0.23-0.5-0.5-0.5-0.27 0-0.5 0.23-0.5 0.5zm11.16 1.5c0 1.37 0.22 1.82 0.5 1 0.28-0.83 0.28-1.95 0-2.5-0.28-0.55-0.5 0.12-0.5 1.5zm-10.16 0.5c0 0.27 0.23 0.5 0.5 0.5 0.27 0 0.5-0.23 0.5-0.5 0-0.27-0.23-0.5-0.5-0.5-0.27 0-0.5 0.23-0.5 0.5zm17.05 1c0.06 1.1 0.22 1.41 0.35 0.69 0.13-0.72 0.08-1.62-0.11-2-0.19-0.38-0.3 0.21-0.24 1.31zm-16.05 1c0 0.27 0.23 0.5 0.5 0.5 0.27 0 0.5-0.23 0.5-0.5 0-0.27-0.23-0.5-0.5-0.5-0.27 0-0.5 0.23-0.5 0.5zm1 2c0 0.27 0.23 0.5 0.5 0.5 0.27 0 0.5-0.23 0.5-0.5 0-0.27-0.23-0.5-0.5-0.5-0.27 0-0.5 0.23-0.5 0.5zm1 2c0 0.27 0.23 0.5 0.5 0.5 0.27 0 0.5-0.23 0.5-0.5 0-0.27-0.23-0.5-0.5-0.5-0.27 0-0.5 0.23-0.5 0.5zm6.16 1.5c0 1.37 0.22 1.82 0.5 1 0.28-0.83 0.28-1.95 0-2.5-0.28-0.55-0.5 0.12-0.5 1.5zm6.89-0.5c0.06 1.1 0.22 1.41 0.35 0.69 0.13-0.72 0.08-1.62-0.11-2-0.19-0.38-0.3 0.21-0.24 1.31zm7.2-0.78c0.41 0.43 1.05 0.44 1.42 0.03 0.36-0.41 0.03-0.76-0.75-0.78-0.78-0.01-1.08 0.32-0.67 0.75zm7.75-0.22c0 0.27 0.23 0.5 0.5 0.5 0.27 0 0.5-0.23 0.5-0.5 0-0.27-0.23-0.5-0.5-0.5-0.27 0-0.5 0.23-0.5 0.5zm5 0c0 0.27 0.23 0.5 0.5 0.5 0.27 0 0.5-0.23 0.5-0.5 0-0.27-0.23-0.5-0.5-0.5-0.27 0-0.5 0.23-0.5 0.5zm-45.95 2c0.06 1.1 0.22 1.41 0.35 0.69 0.13-0.72 0.08-1.62-0.11-2-0.19-0.38-0.3 0.21-0.24 1.31zm29.2 2c0.01 2.39 0.2 2.99 0.45 1.5 0.24-1.38 0.23-3.18-0.02-4-0.25-0.83-0.44 0.3-0.43 2.5zm9.75-3c0 0.27 0.23 0.5 0.5 0.5 0.28 0 0.5-0.23 0.5-0.5 0-0.27-0.22-0.5-0.5-0.5-0.27 0-0.5 0.23-0.5 0.5zm9 0c0 0.27 0.23 0.5 0.5 0.5 0.28 0 0.5-0.23 0.5-0.5 0-0.27-0.22-0.5-0.5-0.5-0.27 0-0.5 0.23-0.5 0.5zm-34 1c0 0.27 0.23 0.5 0.5 0.5 0.28 0 0.5-0.23 0.5-0.5 0-0.27-0.22-0.5-0.5-0.5-0.27 0-0.5 0.23-0.5 0.5zm22 0.5c0 0.55 0.45 0.77 1 0.5 0.55-0.27 1-0.73 1-1 0-0.27-0.45-0.5-1-0.5-0.55 0-1 0.45-1 1zm-28.6 2c0.33 0.55 0.83 1 1.1 1 0.28 0 0.28-0.45 0-1-0.27-0.55-0.77-1-1.1-1-0.33 0-0.33 0.45 0 1zm7.6-0.5c0 0.27 0.23 0.5 0.5 0.5 0.28 0 0.5-0.23 0.5-0.5 0-0.27-0.22-0.5-0.5-0.5-0.27 0-0.5 0.23-0.5 0.5zm35.25 4c0.01 2.39 0.2 2.99 0.45 1.5 0.24-1.38 0.23-3.18-0.02-4-0.25-0.83-0.44 0.3-0.43 2.5zm-34.25-2c0 0.27 0.23 0.5 0.5 0.5 0.28 0 0.5-0.23 0.5-0.5 0-0.27-0.22-0.5-0.5-0.5-0.27 0-0.5 0.23-0.5 0.5zm9.16 1.5c0 1.37 0.22 1.83 0.5 1 0.28-0.83 0.28-1.95 0-2.5-0.28-0.55-0.5 0.12-0.5 1.5zm-26.11 0.5c0.06 1.1 0.22 1.41 0.35 0.69 0.13-0.72 0.08-1.62-0.11-2-0.19-0.38-0.3 0.21-0.24 1.31zm7.11 0.5c0 1.37 0.22 1.83 0.5 1 0.28-0.83 0.28-1.95 0-2.5-0.28-0.55-0.5 0.12-0.5 1.5zm2.84-1.5c0 0.27 0.23 0.5 0.5 0.5 0.28 0 0.5-0.23 0.5-0.5 0-0.27-0.22-0.5-0.5-0.5-0.27 0-0.5 0.23-0.5 0.5zm8.55 0.5c-0.3 0.55-0.1 1.23 0.45 1.5 0.55 0.27 1-0.17 1-1 0-0.83-0.2-1.5-0.45-1.5-0.25 0-0.7 0.45-1 1zm-7.55 1.5c0 0.27 0.23 0.5 0.5 0.5 0.28 0 0.5-0.23 0.5-0.5 0-0.27-0.22-0.5-0.5-0.5-0.27 0-0.5 0.23-0.5 0.5zm1 2c0 0.27 0.23 0.5 0.5 0.5 0.28 0 0.5-0.23 0.5-0.5 0-0.27-0.22-0.5-0.5-0.5-0.27 0-0.5 0.23-0.5 0.5zm17.16 2.5c0 1.37 0.22 1.83 0.5 1 0.28-0.83 0.28-1.95 0-2.5-0.28-0.55-0.5 0.12-0.5 1.5zm-30.11 0.5c0.06 1.1 0.22 1.41 0.35 0.69 0.13-0.72 0.08-1.62-0.11-2-0.19-0.38-0.3 0.21-0.24 1.31zm13.95-1c0 0.27 0.23 0.5 0.5 0.5 0.28 0 0.5-0.23 0.5-0.5 0-0.27-0.22-0.5-0.5-0.5-0.27 0-0.5 0.23-0.5 0.5zm-6.81 3c0.03 1.9 0.21 2.27 0.49 1 0.24-1.1 0.23-2.45-0.04-3-0.26-0.55-0.47 0.35-0.45 2zm19 0c0.03 1.9 0.21 2.27 0.49 1 0.24-1.1 0.23-2.45-0.04-3-0.26-0.55-0.47 0.35-0.45 2zm24.81-2c0 0.27 0.23 0.5 0.5 0.5 0.28 0 0.5-0.23 0.5-0.5 0-0.27-0.22-0.5-0.5-0.5-0.27 0-0.5 0.23-0.5 0.5zm-36 1c0 0.27 0.23 0.5 0.5 0.5 0.28 0 0.5-0.23 0.5-0.5 0-0.27-0.22-0.5-0.5-0.5-0.27 0-0.5 0.23-0.5 0.5zm34.3 1.74q-0.81 1.25 0.45 0.5c0.69-0.41 1.25-0.97 1.25-1.24 0-0.27-0.2-0.5-0.45-0.5-0.25 0-0.81 0.56-1.25 1.24zm-33.3 0.26c0 0.27 0.23 0.5 0.5 0.5 0.28 0 0.5-0.23 0.5-0.5 0-0.27-0.22-0.5-0.5-0.5-0.27 0-0.5 0.23-0.5 0.5zm-16.84 3.5c0 1.37 0.22 1.83 0.5 1 0.28-0.83 0.28-1.95 0-2.5-0.28-0.55-0.5 0.12-0.5 1.5zm17.84-1.5c0 0.27 0.23 0.5 0.5 0.5 0.28 0 0.5-0.23 0.5-0.5 0-0.27-0.22-0.5-0.5-0.5-0.27 0-0.5 0.23-0.5 0.5zm12.19 2c0.03 1.9 0.21 2.27 0.49 1 0.24-1.1 0.23-2.45-0.04-3-0.26-0.55-0.47 0.35-0.45 2zm16.11-0.26q-0.81 1.25 0.45 0.5c0.69-0.41 1.25-0.97 1.25-1.24 0-0.27-0.2-0.5-0.45-0.5-0.25 0-0.81 0.56-1.25 1.24zm-27.3 0.26c0 0.27 0.23 0.5 0.5 0.5 0.28 0 0.5-0.23 0.5-0.5 0-0.27-0.22-0.5-0.5-0.5-0.27 0-0.5 0.23-0.5 0.5zm-12 1c0 0.27 0.23 0.5 0.5 0.5 0.28 0 0.5-0.23 0.5-0.5 0-0.27-0.22-0.5-0.5-0.5-0.27 0-0.5 0.23-0.5 0.5zm15.75 0.08c0.69 0.23 1.81 0.23 2.5 0 0.69-0.23 0.13-0.42-1.25-0.42-1.37 0-1.94 0.19-1.25 0.42zm15.75 0.13c1.1 0.23 3.13 0.23 4.5 0 1.38-0.24 0.48-0.44-2-0.44-2.47 0-3.6 0.2-2.5 0.44zm-2.54 5.97c-0.25 1.75-0.1 2.88 0.34 2.5 0.44-0.37 0.65-1.81 0.46-3.18-0.3-2.23-0.39-2.15-0.8 0.68zm-6.56 1.32c0.08 1.93 0.67 2.54 2.6 2.66 2.08 0.14 2.12 0.1 0.25-0.25-1.4-0.25-2.38-1.26-2.6-2.66-0.28-1.84-0.33-1.8-0.25 0.25z"/>
		<path id="Path 4" class="s0" d="m46.21 30.72c-1.16 0.98-2.36 3.47-2.66 5.53-0.5 3.38-0.33 3.75 1.7 3.79 1.24 0.03 2.92-0.72 3.75-1.67 0.83-0.95 1.5-3.28 1.5-5.19 0-1.91-0.49-3.65-1.09-3.86-0.6-0.21-2.04 0.42-3.2 1.4z"/>
		<path id="Path 5" class="s3" d="m44.86 30.75c-1.26 1.62-1.21 1.64 0.64 0.28 1.1-0.8 2.19-1.59 2.42-1.75 0.23-0.15-0.06-0.28-0.64-0.28-0.58 0-1.67 0.79-2.42 1.75zm5.14-1.25c0 0.27 0.23 0.5 0.5 0.5 0.27 0 0.5-0.23 0.5-0.5 0-0.27-0.23-0.5-0.5-0.5-0.27 0-0.5 0.23-0.5 0.5zm-6.95 5c0.06 1.1 0.22 1.41 0.35 0.69 0.13-0.72 0.08-1.62-0.11-2-0.19-0.38-0.3 0.21-0.24 1.31zm6.89 1.5c0 0.83 0.35 1.16 0.78 0.75 0.43-0.41 0.43-1.09 0-1.5-0.43-0.41-0.78-0.08-0.78 0.75zm-1.94 3.5c0 0.27 0.23 0.5 0.5 0.5 0.27 0 0.5-0.23 0.5-0.5 0-0.27-0.23-0.5-0.5-0.5-0.27 0-0.5 0.23-0.5 0.5zm-4.25 1.08c0.69 0.23 1.81 0.23 2.5 0 0.69-0.23 0.13-0.42-1.25-0.42-1.37 0-1.94 0.19-1.25 0.42z"/>
	</g>
</svg>