<svg version="1.2" xmlns="http://www.w3.org/2000/svg" viewBox="0 0 512 512" width="512" height="512">
	<style>
		.s0 { opacity: 1;fill: #fefefe } 
		.s1 { fill: #7bac3f } 
		.s2 { fill: #1b4463 } 
		.s3 { fill: #55646e } 
		.s4 { fill: #bfccc4 } 
		.s5 { fill: #f0cb43 } 
	</style>
	<g id="Background">
		<path id="Path 0" class="s0" d="m0 256v256h512v-512h-512z"/>
		<path id="Path 1" class="s1" d="m142.5 183.4c-1.65 0.72-4.57 1.66-6.5 2.09-1.93 0.42-4.51 1.84-5.75 3.14-2.08 2.19-2.52 2.27-5.86 1.12-3.55-1.23-3.66-1.19-6.5 2.5-2.08 2.7-3.66 3.76-5.64 3.77-1.51 0.01-4.78 0.93-7.25 2.03-2.47 1.1-5.4 2.01-6.5 2.01-1.1 0.01-3.8-1.37-6-3.06-2.2-1.69-4.45-3.06-5-3.06-0.55 0.01-2.19-1.44-3.65-3.22-2.55-3.11-2.75-3.18-6-1.88-1.84 0.73-6.79 2.08-10.99 3-4.2 0.91-7.93 1.88-8.28 2.16-0.35 0.28-0.84 3.2-1.1 6.5-0.26 3.3-1.04 6.57-1.73 7.26-0.69 0.7-2.83 1.49-4.75 1.76-1.92 0.28-4.4 1.13-5.5 1.91-1.43 1.01-2.03 2.64-2.11 5.74-0.07 2.38-0.18 4.67-0.25 5.08-0.08 0.41-1.15 0.95-2.39 1.19-1.34 0.26-2.85 1.77-3.75 3.75-1.2 2.64-2.17 3.37-4.78 3.6-2.76 0.24-3.67 1.03-5.81 5l-2.53 4.71c3.97 3.49 5.12 4.95 5.12 5.5 0 0.55 1.57 1 3.5 1 1.92 0 4.85 0.9 6.5 2 2.16 1.44 3.91 1.83 6.25 1.4 2.57-0.47 3.42-0.21 4.04 1.25 0.52 1.19 0.16 2.98-1 5.04-1.74 3.11-1.73 3.26 0.21 5.29 1.1 1.15 3.01 2.07 4.25 2.05 1.57-0.02 2.25-0.63 2.25-2.03 0-1.1-0.74-2.79-1.64-3.75-1.37-1.47-1.56-3.51-1.17-12.75 0.31-7.58 0.98-12.01 2.13-14.25 0.93-1.79 3.59-4.64 5.93-6.35 2.34-1.7 9.42-6.17 15.75-9.93 6.33-3.76 16-9 21.5-11.63 9.97-4.78 10.04-4.8 22-5.16 8.02-0.25 14.98 0.15 21 1.21 4.95 0.87 10.8 2.08 13 2.7 2.23 0.63 5.56 2.74 7.54 4.77 2.48 2.55 4.12 5.66 5.5 10.41 1.08 3.73 2.3 6.77 2.71 6.75 0.41-0.01 1.65 0.88 2.75 1.98 1.5 1.5 1.99 3.31 1.97 7.25-0.01 2.95-0.61 5.91-1.36 6.75-0.8 0.89-1.6 5.25-1.98 10.75l-0.63 9.25c17.37 0 18.29-0.2 20.55-2.5 1.35-1.38 4.14-3.34 6.2-4.38 2.06-1.03 4.31-3.05 5-4.5 0.91-1.91 1.99-2.61 4-2.58 1.51 0.03 3.31-0.65 4-1.5 0.69-0.84 1.02-2.33 0.74-3.29-0.3-1.02 0.33-2.48 1.5-3.5 1.25-1.09 2-2.97 1.99-5 0-1.79-0.34-3.74-0.75-4.35-0.4-0.6-2.08-1.73-3.73-2.5-2.42-1.14-3.1-2.19-3.5-5.4-0.47-3.73-0.74-4.02-4.5-4.68-2.2-0.39-6.7-0.71-10-0.72-5.9-0.01-6.06-0.09-9.75-4.55-3.62-4.4-3.9-4.53-8.25-4.05-4.09 0.45-4.59 0.27-5.5-2-0.6-1.49-2.11-2.76-3.75-3.14-1.51-0.35-3.33-1.14-4.04-1.75-0.72-0.61-1.29-2.24-1.27-3.61 0.02-1.38-0.3-3.02-0.71-3.66-0.4-0.64-2.06-1.31-3.69-1.5-2.39-0.27-3.08-0.93-3.56-3.34-0.33-1.65-0.91-3.56-1.29-4.25-0.38-0.69-1.48-1.23-2.44-1.21-0.96 0.02-3.1 0.63-4.75 1.36zm114.73 22.43c-0.76 0.47-2.12 6.95-3.4 16.23l-2.14 15.44c-2.61-5.43-5.11-11.72-7.25-17.5-2.14-5.78-4.35-10.86-4.91-11.29-0.57-0.44-2.83-0.56-5.03-0.28-2.2 0.28-4.53 1.09-5.17 1.79-0.65 0.7-2.56 11.07-4.25 23.03-1.69 11.96-2.86 22.2-2.58 22.75 0.28 0.55 2.53 1 5 1 3.75 0 4.64-0.37 5.34-2.25 0.46-1.24 1.42-6.98 2.12-12.75 0.71-5.78 1.52-10.95 1.79-11.5 0.28-0.55 2.94 4.85 5.9 12 2.97 7.15 5.95 13.33 6.62 13.73 0.68 0.41 2.58 0.75 4.23 0.77 1.65 0.02 3.79-0.54 4.75-1.23 1.38-0.99 2.4-5.63 4.69-21.27 1.61-11 3.37-21.8 3.91-24 0.55-2.2 0.69-4.35 0.32-4.78-0.37-0.43-2.47-0.76-4.67-0.73-2.2 0.02-4.57 0.4-5.27 0.84zm16.06 0.91c-0.67 0.45-1.57 2.67-2 4.94-0.6 3.11-0.42 4.52 0.71 5.76 0.82 0.91 2.51 1.63 3.75 1.6 1.24-0.02 3.15-0.49 4.25-1.04 1.1-0.55 2.56-2.8 3.25-5q1.25-4 0.25-5.02c-0.55-0.57-2.8-1.26-5-1.55-2.2-0.28-4.55-0.14-5.21 0.31zm21.21 18.12c-2.2 1-5.36 3.35-7.03 5.23-1.67 1.87-3.63 5.43-4.36 7.91-0.73 2.47-1.07 6.07-0.76 8 0.32 1.93 1.42 4.62 2.45 6 1.08 1.43 3.76 3.01 6.29 3.7 2.99 0.82 5.69 0.91 8.41 0.28 2.2-0.5 5.08-1.72 6.4-2.7 1.32-0.98 2.56-2.23 2.77-2.78 0.2-0.55-0.25-1.9-1.01-3-1.32-1.92-1.46-1.93-3.76-0.24-1.32 0.96-3.75 1.76-5.4 1.76-1.65 0.01-3.57-0.56-4.27-1.25-0.69-0.7-1.26-1.83-1.25-2.52 0.01-0.69 1.03-1.25 2.27-1.26 1.24 0 3.94-0.45 6-1 2.06-0.54 5.1-2.12 6.75-3.49 2.42-2.01 3-3.28 3-6.5 0-2.2-0.45-4.9-1-6-0.55-1.1-2.46-2.46-4.25-3.02-1.79-0.56-4.15-1-5.25-0.97-1.1 0.02-3.8 0.85-6 1.85zm66.31-0.64c-2.37 0.45-5.66 1.86-7.31 3.13-1.65 1.27-3.86 4.07-4.92 6.23-1.05 2.15-2.12 5.94-2.36 8.42-0.26 2.62 0.16 5.96 0.99 8q1.43 3.5 5.11 5.25c2.02 0.96 5.14 1.76 6.93 1.77 1.79 0.02 4.94-0.66 7-1.5 2.06-0.83 5.1-3.21 6.75-5.27 1.66-2.08 3.46-5.97 4.06-8.75 0.73-3.42 0.75-6.26 0.06-9-0.56-2.2-1.82-4.74-2.82-5.65-0.99-0.91-3.46-2.06-5.49-2.56-2.06-0.5-5.59-0.54-8-0.07zm-89.36 0.74c-1.35 0.57-2.29 2.19-2.72 4.71-0.37 2.1-0.97 8.1-1.34 13.33-0.58 8.07-0.43 9.76 0.96 11.25 0.91 0.96 2.89 1.75 4.4 1.76 1.51 0 3.76-0.67 5-1.5 1.24-0.83 2.23-2.3 2.21-3.26-0.02-0.96-0.81-2.27-1.75-2.91-1.57-1.06-1.6-1.86-0.35-10 0.75-4.86 1.42-9.97 1.5-11.34 0.12-2.1-0.34-2.53-2.86-2.71-1.65-0.12-3.92 0.18-5.05 0.67zm44.83 0.29c-0.51 0.69-2.2 9.8-3.75 20.25-1.55 10.45-2.86 20.12-2.92 21.5-0.1 2.26 0.31 2.52 4.14 2.75 3.59 0.21 4.4-0.1 5.19-2 0.52-1.24 1.19-4.39 1.5-7l0.56-4.75c7.96-0.04 10.87-0.84 13.75-2.52 2.55-1.49 5.21-4.18 6.64-6.73 1.31-2.34 2.66-5.94 3-8 0.33-2.06 0.16-5.55-0.39-7.75-0.55-2.22-2-4.67-3.25-5.51-1.24-0.83-3.6-1.5-5.25-1.49-1.65 0-4.46 0.91-6.25 2-1.79 1.1-3.48 2-3.75 2-0.27 0-0.5-0.9-0.5-2 0-1.66-0.67-2-3.89-2-2.14 0-4.31 0.56-4.83 1.25z"/>
		<path id="Path 2" class="s2" d="m113.5 202.11c-5.71 0.61-9.11 1.82-18.46 6.57-6.3 3.2-15.98 8.62-21.5 12.04-5.52 3.42-11.41 7.47-13.08 9-2.29 2.09-3.22 4.02-3.76 7.78-0.39 2.75-0.71 10.29-0.71 16.75 0.01 9.77 0.26 11.75 1.51 11.75 0.83 0 1.79 0.79 2.15 1.75 0.36 0.96 1.37 2.52 2.25 3.47 1.49 1.6 1.36 1.76-1.9 2.27-1.92 0.31-7.33 0.93-12 1.4-8.01 0.8-7.56 0.85 7.75 0.98 8.94 0.07 24.01 0.6 33.5 1.17 9.49 0.57 22.65 1.7 29.25 2.51 6.6 0.81 16.5 2.17 22 3.02 5.5 0.86 14.5 2.43 20 3.5 5.5 1.06 11.8 2.38 14 2.92 2.2 0.54 8.72 2.11 14.5 3.5 5.78 1.38 13.43 3.35 17 4.38 3.57 1.03 7.4 2.18 8.5 2.57l2 0.71c-3.1-1.98-4.86-3.25-5.92-4.1-1.06-0.85-2.86-2.53-4-3.72-1.46-1.53-6.27-3.25-16.08-5.75-7.7-1.97-21.43-4.94-30.5-6.6-9.07-1.67-18.84-3.36-21.69-3.75-2.86-0.4-5.11-0.83-5-0.96 0.1-0.13 12.56-0.91 27.69-1.74 15.12-0.82 29.07-1.5 31-1.5 2.84 0 3.26-0.23 2.2-1.26-0.92-0.9-6.88-1.42-20.13-1.77-11.92-0.32-18.69-0.87-18.46-1.5 0.2-0.55 2.17-1.34 4.38-1.75q4-0.75 5.18-3c0.65-1.24 1.28-7.2 1.4-13.25 0.18-9.22 0.48-11.04 1.82-11.25 1.2-0.19 1.61-1.39 1.61-4.75 0-3.84-0.38-4.68-2.57-5.75-1.41-0.69-2.8-2.38-3.09-3.75-0.28-1.38-1.14-4.53-1.89-7-0.76-2.48-2.29-5.74-3.41-7.25-1.35-1.82-3.81-3.24-7.29-4.22-2.89-0.8-8.63-1.89-12.75-2.42-4.13-0.53-9.97-1.14-13-1.35-3.03-0.22-8.65-0.06-12.5 0.35zm344.88 4.66c-0.61 0.4-1.48 1.85-1.92 3.23-0.45 1.37-1.31 5.42-1.91 9l-1.1 6.5c-5.39-0.47-8.3-0.14-9.95 0.43-1.65 0.56-4.44 2.5-6.2 4.3-1.76 1.8-3.94 5.07-4.84 7.27-0.91 2.2-1.62 6.47-1.58 9.5 0.05 4.33 0.55 5.98 2.34 7.78q2.28 2.27 5.78 2.25c2.04-0.01 5.06-1.06 7.25-2.53 2.06-1.37 3.98-2.5 4.25-2.5 0.27 0 0.5 0.67 0.5 1.5 0 0.82 1.01 1.97 2.25 2.55 1.44 0.68 3.15 0.73 4.75 0.14 2.33-0.85 2.48-1.3 2.19-6.8-0.18-3.24 0.61-11.29 1.75-17.89 1.14-6.6 2.73-14.48 3.55-17.5 0.82-3.03 1.49-6.06 1.5-6.75 0.01-0.78-1.39-1.24-3.74-1.23-2.06 0-4.25 0.34-4.87 0.75zm-67.03 4.52c-1.18 0.69-2.71 2.37-3.4 3.73-0.69 1.36-0.96 3.27-0.6 4.23 0.47 1.27 1.76 1.75 4.65 1.75 3.2 0 4.41-0.55 6.03-2.75 1.12-1.51 2.02-3.54 2-4.5-0.01-0.96-0.93-2.2-2.03-2.75-1.1-0.55-2.56-0.99-3.25-0.99-0.69 0.01-2.22 0.58-3.4 1.28zm85.65 14.31c-1.93 0.83-4.56 2.5-5.85 3.71-1.29 1.2-3.26 3.99-4.38 6.19-1.12 2.2-2.09 6.07-2.15 8.6-0.07 2.53 0.56 5.85 1.38 7.37 0.82 1.52 2.74 3.38 4.25 4.14 1.51 0.77 4.44 1.38 6.5 1.37 2.06-0.01 5.55-0.84 7.75-1.84 2.2-1 4.55-2.46 5.23-3.23 0.98-1.12 0.96-1.82-0.1-3.41-1.29-1.92-1.43-1.93-3.73-0.24-1.32 0.96-4.09 1.75-6.15 1.75-2.89-0.01-4-0.52-4.85-2.26-0.85-1.74-0.79-2.42 0.25-2.98 0.74-0.41 2.7-0.76 4.35-0.78 1.65-0.02 4.91-0.92 7.25-2.01 2.34-1.09 4.7-2.88 5.25-3.98 0.55-1.1 1-3.35 1-5 0-1.65-0.45-3.9-1-5-0.55-1.1-2.46-2.46-4.25-3.02-1.79-0.56-4.15-0.99-5.25-0.96-1.1 0.03-3.57 0.74-5.5 1.58zm-68.95 1.13c-1.9 0.91-4.73 3.47-6.29 5.71-1.55 2.23-3.32 5.63-3.92 7.56-0.61 1.92-0.85 5.52-0.55 8 0.38 3.15 1.32 5.17 3.13 6.75 1.42 1.24 3.82 2.26 5.33 2.28 1.51 0.02 4.44-1.11 6.5-2.5 2.06-1.39 3.98-2.53 4.25-2.53 0.27 0 0.73 0.9 1 2 0.27 1.1 1.29 2.29 2.25 2.65 0.96 0.36 2.88 0.24 4.25-0.27 2.38-0.88 2.49-1.25 2.2-7.9-0.17-3.84 0.35-10.36 1.14-14.48 1.08-5.57 1.16-7.68 0.31-8.2-0.63-0.38-4.53-0.7-8.65-0.7-4.89 0-8.7 0.57-10.95 1.63zm-21.88 1.02c-0.49 0.96-1.65 7.15-2.57 13.75-0.93 6.6-1.89 13.35-2.15 15-0.45 2.91-0.61 2.99-5.21 2.63-3.94-0.31-5.29 0.07-7.99 2.25-2.44 1.97-3.26 3.43-3.28 5.87-0.02 1.85 0.73 3.98 1.75 4.94 0.98 0.93 3.58 2.01 5.78 2.39 3.05 0.54 5.13 0.2 8.75-1.44 3.44-1.55 5.27-3.17 6.65-5.89 1.05-2.06 2.39-6.45 2.97-9.75 0.59-3.3 1.73-10.5 2.53-16 0.8-5.5 1.71-11.24 2.03-12.75 0.55-2.68 0.45-2.75-3.9-2.75-3.25 0-4.72 0.48-5.36 1.75zm1.33 51.31c-9.9 0.4-25.43 1.48-34.5 2.38-9.07 0.91-20.77 2.32-26 3.15-5.23 0.82-14 2.34-19.5 3.39-5.5 1.04-15.18 3.24-21.5 4.89-6.32 1.65-16.11 4.72-21.75 6.82-5.64 2.09-10.14 3.95-10 4.11 0.14 0.17 5.87-1.06 12.75-2.73 6.87-1.66 15.43-3.68 19-4.48 3.57-0.8 11.23-2.41 17-3.59 5.77-1.17 14.32-2.81 19-3.63 4.68-0.83 14.12-2.33 21-3.34 6.87-1.01 19.48-2.58 28-3.49 8.52-0.92 22.48-2.25 31-2.97 8.52-0.71 12.8-1.29 9.5-1.28-3.3 0.01-14.1 0.36-24 0.77z"/>
		<path id="Path 3" class="s3" d="m189.5 269.73c2.2 0.22 4.45 0.83 5 1.35 0.64 0.61-0.25 0.95-2.5 0.95-1.93 0-15.88 0.68-31 1.5-15.13 0.83-27.59 1.61-27.69 1.74-0.11 0.13 2.14 0.56 5 0.96 2.85 0.39 12.62 2.08 21.69 3.75 9.07 1.66 22.8 4.63 30.5 6.6 10.19 2.6 14.54 4.18 16 5.8 1.1 1.22 2.9 2.75 4 3.4 1.73 1.02 1.8 1.33 0.5 2.27-1.16 0.83-0.93 0.91 1 0.33 1.82-0.54 2.29-0.42 1.75 0.44q-0.72 1.16 0.75 0.68c0.82-0.27 1.49-0.16 1.48 0.25-0.02 0.41 2.67 1.65 5.96 2.75 5.26 1.76 6.34 1.83 8.78 0.63 1.53-0.75 7.5-2.92 13.28-4.81 5.78-1.9 16.57-4.96 24-6.81 7.43-1.85 19.13-4.5 26-5.89 6.88-1.39 20.38-3.67 30-5.07 9.63-1.4 21.1-2.91 25.5-3.36 5.19-0.54-0.78-0.67-17-0.37-13.75 0.25-34-0.07-45-0.72-11-0.65-26.3-1.89-34-2.77-7.7-0.87-19.05-1.64-25.21-1.71-6.17-0.07-10.45-0.45-9.5-0.86 0.94-0.41-3.24-0.53-9.29-0.28-6.91 0.29-10.07 0.14-8.5-0.41 1.74-0.61-0.22-0.85-6.5-0.8-4.95 0.04-7.2 0.25-5 0.46zm202.5 8.61c0.27 0.21 4.32 0.61 9 0.89 4.68 0.27 7.38 0.15 6-0.27-1.37-0.42-5.43-0.82-9-0.89-3.57-0.07-6.27 0.05-6 0.27z"/>
		<path id="Path 4" class="s4" d="m52.37 247.5c0 5.5 0.17 7.52 0.37 4.5 0.2-3.03 0.2-7.53-0.01-10-0.2-2.47-0.37 0-0.36 5.5zm3 1.5c0 5.78 0.17 8.02 0.37 5 0.2-3.03 0.2-7.75 0-10.5-0.2-2.75-0.37-0.28-0.37 5.5zm114.97-1c0 4.13 0.17 5.93 0.39 4 0.21-1.93 0.21-5.3 0-7.5-0.22-2.2-0.39-0.63-0.39 3.5zm-0.54 12.27c0.38 0.42 4.08 0.64 8.2 0.49l7.5-0.28c-12.72-0.76-16.09-0.64-15.7-0.21zm-14.4 7.98c-0.22 0.41 7.81 0.66 17.85 0.56 10.04-0.11 15.55-0.33 12.25-0.49-3.3-0.16-11.33-0.41-17.85-0.56-6.51-0.14-12.03 0.08-12.25 0.49zm-122.51 7.9c-0.77 0.46 3.5 0.77 9.61 0.72 6.05-0.06 10.33-0.25 9.5-0.43-0.82-0.17-5.15-0.5-9.61-0.71-4.46-0.22-8.74-0.03-9.5 0.42zm27.61 0.59c2.75 0.2 6.8 0.2 9-0.01 2.2-0.21-0.05-0.38-5-0.38-4.95 0.01-6.75 0.18-4 0.39zm247 0.01c7.15 0.17 18.63 0.17 25.5 0 6.88-0.17 1.02-0.32-13-0.32-14.02 0-19.65 0.15-12.5 0.32zm97.5 0.59c0.27 0.21 8.26 0.67 17.75 1.02 11.26 0.42 17.25 0.29 17.25-0.36 0-0.63-6.6-1.01-17.75-1.03-9.76-0.01-17.52 0.15-17.25 0.37zm-23.5 1.38c1.65 0.22 4.8 0.22 7 0.01 2.2-0.22 0.85-0.4-3-0.4-3.85-0.01-5.65 0.17-4 0.39z"/>
		<path id="Path 5" class="s0" d="m117.25 211.58c-0.9 0.3-1.09 2.05-0.7 6.17 0.31 3.16 0.76 7.21 1 9 0.25 1.79 0.79 3.26 1.2 3.27 0.41 0 1.13-2.36 1.6-5.25 0.62-3.83 1.65-6.02 3.75-8.02 1.65-1.57 4.6-3.03 6.86-3.41 2.94-0.49 3.52-0.86 2.25-1.43-0.94-0.42-4.64-0.77-8.21-0.76-3.58 0-7.06 0.2-7.75 0.43zm41.23 9.04c0.27 1.04 0.96 4.35 1.55 7.38 0.58 3.02 1.27 5.72 1.54 6 0.27 0.27 0.47-0.51 0.46-1.75-0.02-1.24-0.48-4.5-1.03-7.25-0.55-2.75-1.45-5.28-2-5.63-0.59-0.36-0.8 0.16-0.52 1.25zm136.51 13.63c-1.67 2.72-1.75 3.29-0.49 3.5 0.83 0.14 2.74-0.32 4.25-1.01 1.79-0.82 2.76-2.04 2.78-3.5 0.03-1.68-0.54-2.24-2.26-2.24-1.51 0-2.97 1.11-4.28 3.25zm184.91-2.17c-0.88 0.56-2.35 2.35-3.25 3.97-0.91 1.62-1.2 2.95-0.65 2.95 0.55 0 2.58-0.68 4.5-1.5 2.64-1.13 3.44-2.03 3.25-3.67-0.14-1.2-0.7-2.31-1.25-2.47-0.55-0.16-1.72 0.16-2.6 0.72zm-152.55 2.13c-1.14 1.26-2.59 3.86-3.23 5.79-0.63 1.92-1.15 4.51-1.14 5.75 0.01 1.24 0.47 2.47 1.02 2.75 0.55 0.27 2.13 0.05 3.5-0.5 1.38-0.55 3.41-2.46 4.52-4.25q2.02-3.25 1.75-7.25c-0.21-3.16-0.7-4.06-2.31-4.29-1.15-0.17-2.95 0.71-4.11 2zm32.07-0.13c-1.36 1.5-1.89 3.63-1.9 7.63-0.02 4.18 0.41 5.82 1.72 6.67 1.41 0.91 2.21 0.65 4.26-1.38 1.38-1.38 2.79-4.08 3.14-6 0.34-1.93 0.34-4.74-0.01-6.25-0.47-2.04-1.24-2.75-2.98-2.75-1.3 0-3.2 0.94-4.23 2.08zm51.99 0.67c-0.96 0.96-2.34 3.21-3.07 5-0.74 1.79-1.33 4.04-1.32 5 0 0.96 0.34 2.35 0.75 3.09 0.44 0.82 1.6 1.11 2.98 0.75 1.38-0.36 3.02-2.24 4.24-4.84 1.09-2.34 1.99-5.71 2-7.5 0.01-2.55-0.41-3.25-1.92-3.25-1.06 0-2.71 0.79-3.66 1.75zm32.69 1.75c-2.57 2.91-3.06 4.22-2.85 7.75 0.21 3.58 0.61 4.29 2.5 4.5 1.55 0.17 2.87-0.68 4.25-2.75 1.1-1.65 2.19-5.25 2.42-8 0.36-4.32 0.17-5-1.4-5-1.01 0-3.22 1.57-4.92 3.5zm-349 19.75c-0.62 0.69-1.01 3.23-0.86 5.65 0.17 2.97 0.85 4.75 2.07 5.5 1.45 0.88 2.1 0.7 3.27-0.9 0.8-1.1 1.45-3.46 1.44-5.25-0.01-1.79-0.69-3.93-1.52-4.75-0.82-0.83-1.9-1.5-2.39-1.5-0.49 0-1.39 0.56-2.01 1.25zm-31.15 4.94c-0.65 1.27-0.9 3.55-0.56 5.06 0.33 1.51 1.06 2.75 1.61 2.75 0.55 0 1.45-0.9 2-2 0.55-1.1 0.66-3.18 0.25-4.63-0.41-1.45-1.06-2.82-1.44-3.06-0.37-0.23-1.21 0.62-1.86 1.88zm308.6 4.81c-0.3 0.55-0.32 1.45-0.05 2 0.27 0.55 1.31 1 2.3 1 0.99 0 2.35-0.56 3.02-1.25 0.67-0.69 1.21-1.59 1.2-2-0.01-0.41-1.35-0.75-2.97-0.75-1.62 0-3.2 0.45-3.5 1zm-258.85 1.39c-0.62 1.43 0.75 1.61 12.55 1.63 8.16 0.01 12.87-0.34 12.25-0.91-0.55-0.51-6.2-1.24-12.55-1.63-10.08-0.61-11.63-0.5-12.25 0.91zm-36.12 1.11c-0.32 0.82-0.58 1.73-0.58 2 0 0.27 2.66 0.39 5.91 0.25 3.25-0.14 6.17-0.59 6.5-1 0.32-0.41 0.37-1.2 0.09-1.75-0.27-0.55-2.94-1-5.92-1-3.88 0-5.58 0.42-6 1.5zm102.42 7.84c0.28 0.22 3.31 0.68 6.75 1.03 3.92 0.39 6.25 0.26 6.25-0.37 0-0.57-2.94-1.01-6.75-1.03-3.71-0.01-6.52 0.15-6.25 0.37zm21.53 2.56c-1.49 0.62-0.28 1.12 5 2.05 3.94 0.7 8.49 0.91 10.47 0.48 3.35-0.71 3.39-0.77 1-1.45-1.37-0.38-5.2-0.97-8.5-1.31-3.3-0.33-6.89-0.23-7.97 0.23zm24.47 4.33l-3.5 1.05c9.58 2.99 13.51 3.53 15.75 3.23 2.06-0.28 3.95-0.85 4.19-1.26 0.24-0.41-2.05-1.37-5.08-2.13-3.04-0.76-6.05-1.5-6.69-1.66-0.64-0.15-2.74 0.2-4.67 0.77zm21 6.01c-3.38 1.02-3.41 1.08-1 1.7 1.38 0.36 4.2 0.18 6.29-0.4 2.93-0.8 3.38-1.19 2-1.72-0.99-0.37-2.24-0.67-2.79-0.66-0.55 0.01-2.57 0.5-4.5 1.08z"/>
		<path id="Path 6" class="s1" d="m74.11 228.5c0.52 0.55 0.82 4.18 0.67 8.06-0.26 6.46-0.11 7.06 1.72 7.15 1.1 0.05 1.44-0.09 0.75-0.31-0.84-0.27-1.3-2.97-1.42-8.23-0.11-5.56-0.53-7.81-1.41-7.75-0.79 0.05-0.91 0.45-0.31 1.08zm-8.31 3.25c-0.17 0.41-0.04 4.12 0.27 8.25l0.57 7.5c0.28-12.79 0.16-16.5-0.09-16.5-0.25 0-0.59 0.34-0.75 0.75zm-7.43 16.25c0 5.78 0.17 8.02 0.37 5 0.2-3.03 0.2-7.75 0-10.5-0.2-2.75-0.37-0.28-0.37 5.5zm105.62-0.7l0.49 9.2c0.42-13.18 0.2-17.32-0.22-17.7-0.42-0.39-0.54 3.43-0.27 8.5zm-16.49 11.42c1.65 0.22 4.8 0.22 7 0.01 2.2-0.22 0.85-0.4-3-0.4-3.85-0.01-5.65 0.17-4 0.39z"/>
		<path id="Path 7" class="s2" d="m78.75 224.84c-2.64 1.6-2.75 1.98-2.75 9.91 0 4.54 0.34 8.26 0.75 8.27 0.41 0.01 2.21-0.44 4-1l3.25-1.02c0-15.58-0.34-17.98-1.25-17.91-0.69 0.05-2.49 0.84-4 1.75zm-9 5c-2.59 1.57-2.75 2.07-2.75 8.91 0 4.17 0.43 7.25 1 7.25 0.55 0 2.13-0.45 3.5-1 2.38-0.95 2.5-1.4 2.5-9 0-4.4-0.34-7.96-0.75-7.91-0.41 0.05-1.99 0.84-3.5 1.75zm-8 4.44c-1.41 0.99-1.7 2.48-1.5 7.84 0.24 6.41 0.32 6.59 2.5 5.75 2.04-0.79 2.25-1.53 2.25-7.87 0-3.85-0.34-6.99-0.75-6.97-0.41 0.02-1.54 0.58-2.5 1.25z"/>
		<path id="Path 8" class="s3" d="m74.34 236c0 4.13 0.17 5.93 0.39 4 0.21-1.93 0.21-5.3 0-7.5-0.22-2.2-0.39-0.63-0.39 3.5zm-9.84 4c0 4.29 0.34 7.63 0.75 7.4 0.41-0.22 0.8-3.52 0.85-7.34 0.06-3.82-0.28-7.15-0.75-7.41-0.47-0.25-0.85 3.06-0.85 7.35zm-5.67 1.85c0.18 3.11 0.48 6.1 0.67 6.65 0.19 0.55 0.42-1.79 0.52-5.19 0.1-3.41-0.2-6.4-0.67-6.65-0.47-0.25-0.7 2.09-0.52 5.19zm70.17 19.11c-5.23 0.46-1.16 0.71 13.5 0.83 11.55 0.1 20.77 0.02 20.5-0.17-0.28-0.2-6.35-0.57-13.5-0.83-7.15-0.27-16.38-0.19-20.5 0.17zm2.5 8.04l-8 0.63c13.21 0.3 16.5-0.03 16.5-0.63 0-0.55-0.11-0.92-0.25-0.82-0.14 0.1-3.85 0.47-8.25 0.82z"/>
		<path id="Path 9" class="s4" d="m132 211.51c0.28 0.31 4.1 0.96 8.5 1.45 4.4 0.48 8.9 1.21 10 1.61 1.4 0.51 1.7 0.4 1-0.35-0.55-0.59-4.49-1.55-8.75-2.14-4.26-0.6-8.54-1.09-9.5-1.11-0.96-0.01-1.53 0.23-1.25 0.54zm-17 49.23c4.13 0.19 10.65 0.19 14.5 0 3.85-0.19 0.47-0.34-7.5-0.34-7.97 0-11.13 0.15-7 0.34zm12.5 5.85c1.1 0.18 4.09 0.46 6.65 0.62 2.56 0.16 4.48-0.05 4.25-0.46-0.22-0.41-3.21-0.69-6.65-0.61-3.44 0.07-5.35 0.28-4.25 0.45z"/>
		<path id="Path 10" class="s5" d="m112 204.01c-2.47 0.5-10.35 3.83-17.5 7.39-7.15 3.57-17.28 9.24-22.5 12.62-5.22 3.37-10.06 6.89-10.74 7.81-0.68 0.92-1.02 1.78-0.75 1.92 0.27 0.14 3.34-1.35 6.82-3.3 3.48-1.95 6.42-3.19 6.53-2.75 0.11 0.44 0.75 0.08 1.42-0.8 0.67-0.87 2.68-2.34 4.47-3.25 1.79-0.91 3.47-1.65 3.75-1.65 0.28 0 0.5 4.5 0.5 10v10c-5.04 1.12-6.95 1.5-7.5 1.57-0.55 0.07-2.58 0.81-4.5 1.64-1.92 0.83-5.64 2.14-8.26 2.9l-4.76 1.39-0.05 10c3.93-4.26 5.52-5.5 6.07-5.5 0.55 0 2.12 1.13 3.5 2.5 2.46 2.46 2.64 2.48 11.25 1.52 4.81-0.54 8.86-0.99 9-1 0.14-0.01 0.23-0.81 0.22-1.77-0.02-0.96 1.1-2.99 2.5-4.5 1.83-1.99 3.49-2.75 6.03-2.75 2.66 0 3.99 0.66 5.54 2.75 1.13 1.51 2.25 3.54 2.5 4.5 0.41 1.57 2.54 1.8 21.21 2.27 11.41 0.28 24.35 0.62 28.75 0.75l8 0.23v-19.94c-12.4-2.06-23.65-3.19-33-3.86l-17-1.2c-1.19-9.3-1.42-14.91-1.27-18.48l0.27-6.47c7.03-1.27 14.48-1.17 21.5-0.59 6.87 0.58 14.97 1.68 18 2.46 3.03 0.78 5.61 1.23 5.75 1 0.14-0.23-1.21-1.3-3-2.38-1.79-1.08-7.07-2.65-11.75-3.48-4.68-0.83-12.55-1.72-17.5-1.99-4.95-0.26-11.03-0.06-13.5 0.44z"/>
		<path id="Path 11" class="s0" d="m118 239.2c-0.77 0.66-1.31 2.68-1.2 4.5 0.11 1.82 0.87 3.98 1.7 4.8 0.83 0.83 1.84 1.51 2.25 1.53 0.41 0.02 1.53-0.77 2.47-1.75 0.95-0.98 1.74-3.24 1.75-5.03 0.02-2.27-0.58-3.55-1.97-4.25-1.1-0.55-2.36-1-2.8-1-0.44 0-1.43 0.54-2.2 1.2zm38.65 4.25c-0.36 0.85-0.67 2.34-0.69 3.3-0.03 0.96 0.53 2.31 1.25 3 0.77 0.75 2.03 0.95 3.12 0.5 1.39-0.57 1.76-1.6 1.5-4.25-0.25-2.66-0.83-3.57-2.43-3.8-1.18-0.17-2.38 0.37-2.75 1.25z"/>
		<path id="Path 12" class="s1" d="m109.37 221.5c0 5.5 0.17 7.53 0.37 4.5 0.2-3.03 0.2-7.53-0.01-10-0.2-2.47-0.37 0-0.36 5.5zm-24.06-0.13c-0.35 0.75-0.44 3.79-0.21 6.75l0.43 5.38c0.75-10.47 0.85-13.5 0.7-13.5-0.16 0-0.57 0.62-0.92 1.37z"/>
		<path id="Path 13" class="s2" d="m103 212.8l-3.5 1.71c-0.4 15.49-0.18 20.31 0.24 20.69 0.42 0.39 2.67 0.28 5.01-0.25l4.25-0.95c0-20.06-0.32-22.99-1.25-22.95-0.69 0.02-2.83 0.82-4.75 1.75zm-13.43 6.27l-3.94 1.98c0.35 18 0.55 18.89 2.12 18.4 0.96-0.31 2.76-0.76 4-1 2.16-0.43 2.25-0.86 2.25-10.95 0-5.78-0.11-10.48-0.25-10.46-0.14 0.03-2.02 0.94-4.18 2.03zm38.54 23.11c-0.03 0.73 1.06 2.78 2.42 4.57 1.43 1.89 4.04 3.72 6.22 4.38 2.06 0.62 6 0.88 8.75 0.57 3.11-0.34 5.76-1.32 7-2.57 1.28-1.29 1.73-2.58 1.25-3.58-0.64-1.32-1.23-1.16-4 1.07-2.69 2.17-4.05 2.55-7.9 2.25-3.27-0.26-5.41-1.11-7.22-2.87-1.42-1.38-2.48-2.94-2.35-3.48 0.12-0.53-0.76-1.13-1.95-1.32-1.29-0.2-2.19 0.2-2.22 0.98z"/>
		<path id="Path 14" class="s3" d="m94.37 227.5c0 5.5 0.17 7.53 0.37 4.5 0.2-3.03 0.2-7.53-0.01-10-0.2-2.47-0.37 0-0.36 5.5z"/>
	</g>
</svg>